<svg viewBox="0 0 800 800" preserveAspectRatio="xMidYMid meet" version="1.1" xmlns="http://www.w3.org/2000/svg" style="font: 10px sans-serif;"><g id="circle" transform="translate(400,400)"><circle r="285.7142857142857" style="fill: none;"></circle><g class="group"><title>brand:Brand</title><path id="group0" d="M0,-285.714A285.714,285.714,0,0,1,254.014,130.803L232.677,119.815A261.714,261.714,0,0,0,0,-261.714Z" style="fill: rgb(31, 119, 180);"></path><text dy=".35em" transform="rotate(-31.377097705257903)translate(287.7142857142857)">brand:Brand</text></g><g class="group"><title>prov:Entity</title><path id="group1" d="M248.581,140.856L227.7,129.024Z" style="fill: rgb(255, 127, 14);"></path><text dy=".35em" transform="rotate(29.537635770007483)translate(287.7142857142857)">prov:Entity</text></g><g class="group"><title>brand:Campaign</title><path id="group2" d="M242.749,150.684A285.714,285.714,0,0,1,-2.256,285.705L-2.066,261.706A261.714,261.714,0,0,0,222.358,138.026Z" style="fill: rgb(44, 160, 44);"></path><text dy=".35em" transform="rotate(61.14091809790182)translate(287.7142857142857)">brand:Campaign</text></g><g class="group"><title>brand:DesignSystem</title><path id="group3" d="M-13.679,285.387A285.714,285.714,0,0,1,-285.694,-3.384L-261.696,-3.099A261.714,261.714,0,0,0,-12.53,261.414Z" style="fill: rgb(214, 39, 40);"></path><text dy=".35em" transform="rotate(136.71137714685275)translate(287.7142857142857)rotate(180)" style="text-anchor: end;">brand:DesignSystem</text></g><g class="group"><title>brand:ColorToken</title><path id="group4" d="M-285.33,-14.806A285.714,285.714,0,0,1,-227.679,-172.612L-208.554,-158.112A261.714,261.714,0,0,0,-261.363,-13.562Z" style="fill: rgb(148, 103, 189);"></path><text dy=".35em" transform="rotate(200.0687315510657)translate(287.7142857142857)rotate(180)" style="text-anchor: end;">brand:ColorToken</text></g><g class="group"><title>brand:ImageryRule</title><path id="group5" d="M-220.594,-181.578A285.714,285.714,0,0,1,-147.154,-244.905L-134.793,-224.333A261.714,261.714,0,0,0,-202.065,-166.326Z" style="fill: rgb(140, 86, 75);"></path><text dy=".35em" transform="rotate(229.22939295001248)translate(287.7142857142857)rotate(180)" style="text-anchor: end;">brand:ImageryRule</text></g><g class="group"><title>brand:Deliverable</title><path id="group6" d="M-137.243,-250.593L-125.715,-229.543Z" style="fill: rgb(227, 119, 194);"></path><text dy=".35em" transform="rotate(241.29170784632612)translate(287.7142857142857)rotate(180)" style="text-anchor: end;">brand:Deliverable</text></g><g class="group"><title>brand:Constraint</title><path id="group7" d="M-127.112,-255.881A285.714,285.714,0,0,1,-104.859,-265.776L-96.051,-243.451A261.714,261.714,0,0,0,-116.435,-234.387Z" style="fill: rgb(127, 127, 127);"></path><text dy=".35em" transform="rotate(246.02615995579697)translate(287.7142857142857)rotate(180)" style="text-anchor: end;">brand:Constraint</text></g><g class="group"><title>brand:VoicePillar</title><path id="group8" d="M-94.147,-269.757A285.714,285.714,0,0,1,-22.833,-284.8L-20.915,-260.877A261.714,261.714,0,0,0,-86.239,-247.098Z" style="fill: rgb(188, 189, 34);"></path><text dy=".35em" transform="rotate(258.08847485211066)translate(287.7142857142857)rotate(180)" style="text-anchor: end;">brand:VoicePillar</text></g><g class="group"><title>brand:TypeToken</title><path id="group9" d="M-11.426,-285.486L-10.466,-261.505Z" style="fill: rgb(23, 190, 207);"></path><text dy=".35em" transform="rotate(267.7081688194767)translate(287.7142857142857)rotate(180)" style="text-anchor: end;">brand:TypeToken</text></g><path class="chord" d="M242.0354937220873,99.56498945736013A261.7142857142857,261.7142857142857,0,0,1,232.6772601041787,119.81510746709338Q0,0,-261.69593234709083,-3.099409609204493Q0,0,242.0354937220873,99.56498945736013Z" style="fill: rgb(214, 39, 40); fill-opacity: 0.67; stroke: rgb(0, 0, 0); stroke-width: 0.25px; cursor: pointer;"></path><path class="chord" d="M-116.43472212156003,-234.38712172688557A261.7142857142857,261.7142857142857,0,0,1,-96.05127185654061,-243.45126929568414Q0,0,227.6998167405704,129.02387687265266Q0,0,-116.43472212156003,-234.38712172688557Z" style="fill: rgb(255, 127, 14); fill-opacity: 0.67; stroke: rgb(0, 0, 0); stroke-width: 0.25px; cursor: pointer;"></path><path class="chord" d="M42.3756817416635,258.26085445508005A261.7142857142857,261.7142857142857,0,0,1,-2.0662999072784043,261.70612860923217Q0,0,232.6772601041787,119.81510746709338Q0,0,42.3756817416635,258.26085445508005Z" style="fill: rgb(31, 119, 180); fill-opacity: 0.67; stroke: rgb(0, 0, 0); stroke-width: 0.25px; cursor: pointer;"></path><path class="chord" d="M259.351498911996,35.0879945143596A261.7142857142857,261.7142857142857,0,0,1,242.0354937220873,99.56498945736013Q0,0,227.6998167405704,129.02387687265266Q0,0,259.351498911996,35.0879945143596Z" style="fill: rgb(255, 127, 14); fill-opacity: 0.67; stroke: rgb(0, 0, 0); stroke-width: 0.25px; cursor: pointer;"></path><path class="chord" d="M-86.23898691795257,-247.0975606563205A261.7142857142857,261.7142857142857,0,0,1,-20.914817050217835,-260.8772465637712Q0,0,227.6998167405704,129.02387687265266Q0,0,-86.23898691795257,-247.0975606563205Z" style="fill: rgb(255, 127, 14); fill-opacity: 0.67; stroke: rgb(0, 0, 0); stroke-width: 0.25px; cursor: pointer;"></path><path class="chord" d="M-202.06451242946036,-166.32588542852625A261.7142857142857,261.7142857142857,0,0,1,-134.7933047867617,-224.33263768698916Q0,0,227.6998167405704,129.02387687265266Q0,0,-202.06451242946036,-166.32588542852625Z" style="fill: rgb(255, 127, 14); fill-opacity: 0.67; stroke: rgb(0, 0, 0); stroke-width: 0.25px; cursor: pointer;"></path><path class="chord" d="M126.31824305264018,229.21184266750464A261.7142857142857,261.7142857142857,0,0,1,42.3756817416635,258.26085445508005Q0,0,-125.71457170268384,-229.54349001561675Q0,0,126.31824305264018,229.21184266750464Z" style="fill: rgb(227, 119, 194); fill-opacity: 0.67; stroke: rgb(0, 0, 0); stroke-width: 0.25px; cursor: pointer;"></path><path class="chord" d="M243.324665764249,-96.37154340185327A261.7142857142857,261.7142857142857,0,0,1,259.351498911996,35.0879945143596Q0,0,-20.914817050217835,-260.8772465637712Q0,0,243.324665764249,-96.37154340185327Z" style="fill: rgb(188, 189, 34); fill-opacity: 0.67; stroke: rgb(0, 0, 0); stroke-width: 0.25px; cursor: pointer;"></path><path class="chord" d="M222.35810224354742,138.02623559884145A261.7142857142857,261.7142857142857,0,0,1,126.31824305264018,229.21184266750464Q0,0,-96.05127185654061,-243.45126929568414Q0,0,222.35810224354742,138.02623559884145Z" style="fill: rgb(127, 127, 127); fill-opacity: 0.67; stroke: rgb(0, 0, 0); stroke-width: 0.25px; cursor: pointer;"></path><path class="chord" d="M-229.70871762952302,125.4124092422231A261.7142857142857,261.7142857142857,0,0,1,-261.69593234709083,-3.099409609204493Q0,0,-10.465780032844883,-261.50494220041594Q0,0,-229.70871762952302,125.4124092422231Z" style="fill: rgb(23, 190, 207); fill-opacity: 0.67; stroke: rgb(0, 0, 0); stroke-width: 0.25px; cursor: pointer;"></path><path class="chord" d="M-261.3626601873135,-13.561976506013819A261.7142857142857,261.7142857142857,0,0,1,-208.55414378820444,-158.11241714586404Q0,0,227.6998167405704,129.02387687265266Q0,0,-261.3626601873135,-13.561976506013819Z" style="fill: rgb(255, 127, 14); fill-opacity: 0.67; stroke: rgb(0, 0, 0); stroke-width: 0.25px; cursor: pointer;"></path><path class="chord" d="M-12.530100923391004,261.4141616626544A261.7142857142857,261.7142857142857,0,0,1,-229.70871762952302,125.4124092422231Q0,0,-208.55414378820444,-158.11241714586404Q0,0,-12.530100923391004,261.4141616626544Z" style="fill: rgb(148, 103, 189); fill-opacity: 0.67; stroke: rgb(0, 0, 0); stroke-width: 0.25px; cursor: pointer;"></path><path class="chord" d="M1.6025378114556795e-14,-261.7142857142857A261.7142857142857,261.7142857142857,0,0,1,243.324665764249,-96.37154340185327Q0,0,-134.7933047867617,-224.33263768698916Q0,0,1.6025378114556795e-14,-261.7142857142857Z" style="fill: rgb(140, 86, 75); fill-opacity: 0.67; stroke: rgb(0, 0, 0); stroke-width: 0.25px; cursor: pointer;"></path></g></svg>